<mxfile host="app.diagrams.net" modified="2023-05-29T07:29:05.099Z" agent="Mozilla/5.0 (Windows NT 10.0; Win64; x64; rv:102.0) Gecko/20100101 Firefox/102.0" etag="jGEZhTLNyn5A4SVabQi2" version="21.3.5" type="github">
  <diagram name="Page-1" id="eeQrnODhmi9UHMhf5WE-">
    <mxGraphModel dx="2283" dy="794" grid="1" gridSize="10" guides="1" tooltips="1" connect="1" arrows="1" fold="1" page="1" pageScale="1" pageWidth="850" pageHeight="1100" math="0" shadow="0">
      <root>
        <mxCell id="0" />
        <mxCell id="1" parent="0" />
        <mxCell id="sDgR5sVbnxLiPeDA74GP-60" value="Coordination de la réponse" style="points=[[0.25,0,0],[0.5,0,0],[0.75,0,0],[1,0.25,0],[1,0.5,0],[1,0.75,0],[0.75,1,0],[0.5,1,0],[0.25,1,0],[0,0.75,0],[0,0.5,0],[0,0.25,0]];shape=mxgraph.bpmn.task;whiteSpace=wrap;rectStyle=rounded;size=10;html=1;container=1;expand=0;collapsible=0;taskMarker=abstract;" vertex="1" parent="1">
          <mxGeometry x="210" y="320" width="90" height="80" as="geometry" />
        </mxCell>
        <mxCell id="sDgR5sVbnxLiPeDA74GP-70" style="edgeStyle=orthogonalEdgeStyle;rounded=0;orthogonalLoop=1;jettySize=auto;html=1;exitX=1;exitY=0.5;exitDx=0;exitDy=0;exitPerimeter=0;entryX=0;entryY=0.5;entryDx=0;entryDy=0;entryPerimeter=0;" edge="1" parent="1" source="sDgR5sVbnxLiPeDA74GP-11" target="sDgR5sVbnxLiPeDA74GP-69">
          <mxGeometry relative="1" as="geometry" />
        </mxCell>
        <mxCell id="sDgR5sVbnxLiPeDA74GP-11" value="" style="points=[[0.25,0.25,0],[0.5,0,0],[0.75,0.25,0],[1,0.5,0],[0.75,0.75,0],[0.5,1,0],[0.25,0.75,0],[0,0.5,0]];shape=mxgraph.bpmn.gateway2;html=1;verticalLabelPosition=bottom;labelBackgroundColor=#ffffff;verticalAlign=top;align=center;perimeter=rhombusPerimeter;outlineConnect=0;outline=none;symbol=none;gwType=exclusive;" vertex="1" parent="1">
          <mxGeometry x="430" y="335" width="50" height="50" as="geometry" />
        </mxCell>
        <mxCell id="sDgR5sVbnxLiPeDA74GP-35" style="edgeStyle=orthogonalEdgeStyle;rounded=0;orthogonalLoop=1;jettySize=auto;html=1;exitX=0.5;exitY=1;exitDx=0;exitDy=0;exitPerimeter=0;entryX=0.5;entryY=1;entryDx=0;entryDy=0;entryPerimeter=0;" edge="1" parent="1" source="sDgR5sVbnxLiPeDA74GP-12" target="sDgR5sVbnxLiPeDA74GP-11">
          <mxGeometry relative="1" as="geometry">
            <Array as="points">
              <mxPoint x="135" y="460" />
              <mxPoint x="455" y="460" />
            </Array>
          </mxGeometry>
        </mxCell>
        <mxCell id="sDgR5sVbnxLiPeDA74GP-67" style="edgeStyle=orthogonalEdgeStyle;rounded=0;orthogonalLoop=1;jettySize=auto;html=1;exitX=1;exitY=0.5;exitDx=0;exitDy=0;exitPerimeter=0;entryX=0;entryY=0.5;entryDx=0;entryDy=0;entryPerimeter=0;" edge="1" parent="1" source="sDgR5sVbnxLiPeDA74GP-12" target="sDgR5sVbnxLiPeDA74GP-60">
          <mxGeometry relative="1" as="geometry" />
        </mxCell>
        <mxCell id="sDgR5sVbnxLiPeDA74GP-12" value="" style="points=[[0.25,0.25,0],[0.5,0,0],[0.75,0.25,0],[1,0.5,0],[0.75,0.75,0],[0.5,1,0],[0.25,0.75,0],[0,0.5,0]];shape=mxgraph.bpmn.gateway2;html=1;verticalLabelPosition=bottom;labelBackgroundColor=#ffffff;verticalAlign=top;align=center;perimeter=rhombusPerimeter;outlineConnect=0;outline=none;symbol=none;gwType=exclusive;" vertex="1" parent="1">
          <mxGeometry x="110" y="335" width="50" height="50" as="geometry" />
        </mxCell>
        <mxCell id="sDgR5sVbnxLiPeDA74GP-28" style="edgeStyle=orthogonalEdgeStyle;rounded=0;orthogonalLoop=1;jettySize=auto;html=1;exitX=1;exitY=0.5;exitDx=0;exitDy=0;exitPerimeter=0;entryX=0;entryY=0.5;entryDx=0;entryDy=0;entryPerimeter=0;" edge="1" parent="1" source="sDgR5sVbnxLiPeDA74GP-60" target="sDgR5sVbnxLiPeDA74GP-18">
          <mxGeometry relative="1" as="geometry">
            <mxPoint x="680" y="359.5" as="sourcePoint" />
          </mxGeometry>
        </mxCell>
        <mxCell id="sDgR5sVbnxLiPeDA74GP-68" style="edgeStyle=orthogonalEdgeStyle;rounded=0;orthogonalLoop=1;jettySize=auto;html=1;exitX=1;exitY=0.5;exitDx=0;exitDy=0;exitPerimeter=0;entryX=0;entryY=0.5;entryDx=0;entryDy=0;entryPerimeter=0;" edge="1" parent="1" source="sDgR5sVbnxLiPeDA74GP-18" target="sDgR5sVbnxLiPeDA74GP-11">
          <mxGeometry relative="1" as="geometry" />
        </mxCell>
        <mxCell id="sDgR5sVbnxLiPeDA74GP-18" value="Résolution de l&#39;incident" style="points=[[0.25,0,0],[0.5,0,0],[0.75,0,0],[1,0.25,0],[1,0.5,0],[1,0.75,0],[0.75,1,0],[0.5,1,0],[0.25,1,0],[0,0.75,0],[0,0.5,0],[0,0.25,0]];shape=mxgraph.bpmn.task;whiteSpace=wrap;rectStyle=rounded;size=10;html=1;container=0;expand=0;collapsible=0;taskMarker=abstract;isLoopStandard=1;" vertex="1" parent="1">
          <mxGeometry x="320" y="320" width="90" height="80" as="geometry" />
        </mxCell>
        <mxCell id="sDgR5sVbnxLiPeDA74GP-23" style="edgeStyle=orthogonalEdgeStyle;rounded=0;orthogonalLoop=1;jettySize=auto;html=1;exitX=0.5;exitY=1;exitDx=0;exitDy=0;exitPerimeter=0;" edge="1" parent="1" source="sDgR5sVbnxLiPeDA74GP-18" target="sDgR5sVbnxLiPeDA74GP-18">
          <mxGeometry relative="1" as="geometry" />
        </mxCell>
        <mxCell id="sDgR5sVbnxLiPeDA74GP-58" style="edgeStyle=orthogonalEdgeStyle;rounded=0;orthogonalLoop=1;jettySize=auto;html=1;exitX=1;exitY=0.5;exitDx=0;exitDy=0;exitPerimeter=0;entryX=0;entryY=0.5;entryDx=0;entryDy=0;entryPerimeter=0;" edge="1" parent="1" source="sDgR5sVbnxLiPeDA74GP-31" target="sDgR5sVbnxLiPeDA74GP-48">
          <mxGeometry relative="1" as="geometry" />
        </mxCell>
        <mxCell id="sDgR5sVbnxLiPeDA74GP-31" value="" style="points=[[0.145,0.145,0],[0.5,0,0],[0.855,0.145,0],[1,0.5,0],[0.855,0.855,0],[0.5,1,0],[0.145,0.855,0],[0,0.5,0]];shape=mxgraph.bpmn.event;html=1;verticalLabelPosition=bottom;labelBackgroundColor=#ffffff;verticalAlign=top;align=center;perimeter=ellipsePerimeter;outlineConnect=0;aspect=fixed;outline=standard;symbol=general;" vertex="1" parent="1">
          <mxGeometry x="-340" y="335" width="50" height="50" as="geometry" />
        </mxCell>
        <mxCell id="sDgR5sVbnxLiPeDA74GP-39" value="Incident avéré" style="text;html=1;strokeColor=none;fillColor=none;align=center;verticalAlign=middle;whiteSpace=wrap;rounded=0;" vertex="1" parent="1">
          <mxGeometry x="150" y="360" width="60" height="30" as="geometry" />
        </mxCell>
        <mxCell id="sDgR5sVbnxLiPeDA74GP-40" value="Faux positif" style="text;html=1;strokeColor=none;fillColor=none;align=center;verticalAlign=middle;whiteSpace=wrap;rounded=0;" vertex="1" parent="1">
          <mxGeometry x="80" y="420" width="60" height="30" as="geometry" />
        </mxCell>
        <mxCell id="sDgR5sVbnxLiPeDA74GP-41" value="" style="group" vertex="1" connectable="0" parent="1">
          <mxGeometry x="350" y="270.005" width="115" height="38.75" as="geometry" />
        </mxCell>
        <mxCell id="sDgR5sVbnxLiPeDA74GP-33" value="" style="shape=partialRectangle;whiteSpace=wrap;html=1;bottom=1;right=1;left=1;top=0;fillColor=none;routingCenterX=-0.5;rotation=90;" vertex="1" parent="sDgR5sVbnxLiPeDA74GP-41">
          <mxGeometry x="-10.620000000000005" y="10.625" width="38.75" height="17.5" as="geometry" />
        </mxCell>
        <mxCell id="sDgR5sVbnxLiPeDA74GP-34" value="Jusqu&#39;à éradication de la menace" style="text;html=1;strokeColor=none;fillColor=none;align=center;verticalAlign=middle;whiteSpace=wrap;rounded=0;" vertex="1" parent="sDgR5sVbnxLiPeDA74GP-41">
          <mxGeometry y="4.375" width="115" height="30" as="geometry" />
        </mxCell>
        <mxCell id="sDgR5sVbnxLiPeDA74GP-47" value="" style="group" vertex="1" connectable="0" parent="1">
          <mxGeometry x="-340" y="137.5" width="420" height="125" as="geometry" />
        </mxCell>
        <mxCell id="sDgR5sVbnxLiPeDA74GP-4" value="" style="points=[[0.25,0,0],[0.5,0,0],[0.75,0,0],[1,0.25,0],[1,0.5,0],[1,0.75,0],[0.75,1,0],[0.5,1,0],[0.25,1,0],[0,0.75,0],[0,0.5,0],[0,0.25,0]];shape=mxgraph.bpmn.task;whiteSpace=wrap;rectStyle=rounded;size=10;html=1;container=1;expand=0;collapsible=0;taskMarker=abstract;" vertex="1" parent="sDgR5sVbnxLiPeDA74GP-47">
          <mxGeometry x="70" width="280" height="125" as="geometry" />
        </mxCell>
        <mxCell id="sDgR5sVbnxLiPeDA74GP-5" value="&lt;div&gt;Prévention&lt;/div&gt;" style="text;html=1;strokeColor=none;fillColor=none;align=center;verticalAlign=middle;whiteSpace=wrap;rounded=0;" vertex="1" parent="sDgR5sVbnxLiPeDA74GP-4">
          <mxGeometry x="95.78947368421052" y="-7.5" width="88.42105263157895" height="30" as="geometry" />
        </mxCell>
        <mxCell id="sDgR5sVbnxLiPeDA74GP-46" value="" style="group" vertex="1" connectable="0" parent="sDgR5sVbnxLiPeDA74GP-4">
          <mxGeometry x="10" y="22.5" width="260" height="80" as="geometry" />
        </mxCell>
        <mxCell id="sDgR5sVbnxLiPeDA74GP-42" value="" style="points=[[0.145,0.145,0],[0.5,0,0],[0.855,0.145,0],[1,0.5,0],[0.855,0.855,0],[0.5,1,0],[0.145,0.855,0],[0,0.5,0]];shape=mxgraph.bpmn.event;html=1;verticalLabelPosition=bottom;labelBackgroundColor=#ffffff;verticalAlign=top;align=center;perimeter=ellipsePerimeter;outlineConnect=0;aspect=fixed;outline=end;symbol=terminate2;" vertex="1" parent="sDgR5sVbnxLiPeDA74GP-46">
          <mxGeometry x="210" y="15" width="50" height="50" as="geometry" />
        </mxCell>
        <mxCell id="sDgR5sVbnxLiPeDA74GP-43" value="" style="points=[[0.145,0.145,0],[0.5,0,0],[0.855,0.145,0],[1,0.5,0],[0.855,0.855,0],[0.5,1,0],[0.145,0.855,0],[0,0.5,0]];shape=mxgraph.bpmn.event;html=1;verticalLabelPosition=bottom;labelBackgroundColor=#ffffff;verticalAlign=top;align=center;perimeter=ellipsePerimeter;outlineConnect=0;aspect=fixed;outline=standard;symbol=general;" vertex="1" parent="sDgR5sVbnxLiPeDA74GP-46">
          <mxGeometry y="15" width="50" height="50" as="geometry" />
        </mxCell>
        <mxCell id="sDgR5sVbnxLiPeDA74GP-45" style="edgeStyle=orthogonalEdgeStyle;rounded=0;orthogonalLoop=1;jettySize=auto;html=1;exitX=1;exitY=0.5;exitDx=0;exitDy=0;exitPerimeter=0;entryX=0;entryY=0.5;entryDx=0;entryDy=0;entryPerimeter=0;" edge="1" parent="sDgR5sVbnxLiPeDA74GP-46" source="sDgR5sVbnxLiPeDA74GP-3" target="sDgR5sVbnxLiPeDA74GP-42">
          <mxGeometry relative="1" as="geometry" />
        </mxCell>
        <mxCell id="sDgR5sVbnxLiPeDA74GP-3" value="Education, d&#39;entraînement et sensibilisation à la sécurité" style="points=[[0.25,0,0],[0.5,0,0],[0.75,0,0],[1,0.25,0],[1,0.5,0],[1,0.75,0],[0.75,1,0],[0.5,1,0],[0.25,1,0],[0,0.75,0],[0,0.5,0],[0,0.25,0]];shape=mxgraph.bpmn.task;whiteSpace=wrap;rectStyle=rounded;size=10;html=1;container=0;expand=0;collapsible=0;taskMarker=abstract;" vertex="1" parent="sDgR5sVbnxLiPeDA74GP-46">
          <mxGeometry x="70" width="120" height="80" as="geometry" />
        </mxCell>
        <mxCell id="sDgR5sVbnxLiPeDA74GP-44" style="edgeStyle=orthogonalEdgeStyle;rounded=0;orthogonalLoop=1;jettySize=auto;html=1;exitX=1;exitY=0.5;exitDx=0;exitDy=0;exitPerimeter=0;entryX=0;entryY=0.5;entryDx=0;entryDy=0;entryPerimeter=0;" edge="1" parent="sDgR5sVbnxLiPeDA74GP-46" source="sDgR5sVbnxLiPeDA74GP-43" target="sDgR5sVbnxLiPeDA74GP-3">
          <mxGeometry relative="1" as="geometry" />
        </mxCell>
        <mxCell id="sDgR5sVbnxLiPeDA74GP-6" style="edgeStyle=orthogonalEdgeStyle;rounded=0;orthogonalLoop=1;jettySize=auto;html=1;exitX=1;exitY=0.5;exitDx=0;exitDy=0;exitPerimeter=0;entryX=0;entryY=0.5;entryDx=0;entryDy=0;entryPerimeter=0;" edge="1" parent="sDgR5sVbnxLiPeDA74GP-47" source="sDgR5sVbnxLiPeDA74GP-1" target="sDgR5sVbnxLiPeDA74GP-4">
          <mxGeometry relative="1" as="geometry" />
        </mxCell>
        <mxCell id="sDgR5sVbnxLiPeDA74GP-1" value="" style="points=[[0.145,0.145,0],[0.5,0,0],[0.855,0.145,0],[1,0.5,0],[0.855,0.855,0],[0.5,1,0],[0.145,0.855,0],[0,0.5,0]];shape=mxgraph.bpmn.event;html=1;verticalLabelPosition=bottom;labelBackgroundColor=#ffffff;verticalAlign=top;align=center;perimeter=ellipsePerimeter;outlineConnect=0;aspect=fixed;outline=standard;symbol=general;" vertex="1" parent="sDgR5sVbnxLiPeDA74GP-47">
          <mxGeometry y="37.5" width="50" height="50" as="geometry" />
        </mxCell>
        <mxCell id="sDgR5sVbnxLiPeDA74GP-2" value="" style="points=[[0.145,0.145,0],[0.5,0,0],[0.855,0.145,0],[1,0.5,0],[0.855,0.855,0],[0.5,1,0],[0.145,0.855,0],[0,0.5,0]];shape=mxgraph.bpmn.event;html=1;verticalLabelPosition=bottom;labelBackgroundColor=#ffffff;verticalAlign=top;align=center;perimeter=ellipsePerimeter;outlineConnect=0;aspect=fixed;outline=end;symbol=terminate2;" vertex="1" parent="sDgR5sVbnxLiPeDA74GP-47">
          <mxGeometry x="370" y="37.5" width="50" height="50" as="geometry" />
        </mxCell>
        <mxCell id="sDgR5sVbnxLiPeDA74GP-7" style="edgeStyle=orthogonalEdgeStyle;rounded=0;orthogonalLoop=1;jettySize=auto;html=1;exitX=1;exitY=0.5;exitDx=0;exitDy=0;exitPerimeter=0;entryX=0;entryY=0.5;entryDx=0;entryDy=0;entryPerimeter=0;" edge="1" parent="sDgR5sVbnxLiPeDA74GP-47" source="sDgR5sVbnxLiPeDA74GP-4" target="sDgR5sVbnxLiPeDA74GP-2">
          <mxGeometry relative="1" as="geometry" />
        </mxCell>
        <mxCell id="sDgR5sVbnxLiPeDA74GP-57" style="edgeStyle=orthogonalEdgeStyle;rounded=0;orthogonalLoop=1;jettySize=auto;html=1;exitX=1;exitY=0.5;exitDx=0;exitDy=0;exitPerimeter=0;entryX=0;entryY=0.5;entryDx=0;entryDy=0;entryPerimeter=0;" edge="1" parent="1" source="sDgR5sVbnxLiPeDA74GP-48" target="sDgR5sVbnxLiPeDA74GP-12">
          <mxGeometry relative="1" as="geometry" />
        </mxCell>
        <mxCell id="sDgR5sVbnxLiPeDA74GP-48" value="" style="points=[[0.25,0,0],[0.5,0,0],[0.75,0,0],[1,0.25,0],[1,0.5,0],[1,0.75,0],[0.75,1,0],[0.5,1,0],[0.25,1,0],[0,0.75,0],[0,0.5,0],[0,0.25,0]];shape=mxgraph.bpmn.task;whiteSpace=wrap;rectStyle=rounded;size=10;html=1;container=1;expand=0;collapsible=0;taskMarker=abstract;" vertex="1" parent="1">
          <mxGeometry x="-270" y="294.32" width="360" height="131.37" as="geometry" />
        </mxCell>
        <mxCell id="sDgR5sVbnxLiPeDA74GP-51" value="" style="points=[[0.145,0.145,0],[0.5,0,0],[0.855,0.145,0],[1,0.5,0],[0.855,0.855,0],[0.5,1,0],[0.145,0.855,0],[0,0.5,0]];shape=mxgraph.bpmn.event;html=1;verticalLabelPosition=bottom;labelBackgroundColor=#ffffff;verticalAlign=top;align=center;perimeter=ellipsePerimeter;outlineConnect=0;aspect=fixed;outline=standard;symbol=general;" vertex="1" parent="sDgR5sVbnxLiPeDA74GP-48">
          <mxGeometry x="10.285714285714285" y="40.18000000000001" width="50" height="50" as="geometry" />
        </mxCell>
        <mxCell id="sDgR5sVbnxLiPeDA74GP-52" value="" style="points=[[0.145,0.145,0],[0.5,0,0],[0.855,0.145,0],[1,0.5,0],[0.855,0.855,0],[0.5,1,0],[0.145,0.855,0],[0,0.5,0]];shape=mxgraph.bpmn.event;html=1;verticalLabelPosition=bottom;labelBackgroundColor=#ffffff;verticalAlign=top;align=center;perimeter=ellipsePerimeter;outlineConnect=0;aspect=fixed;outline=end;symbol=terminate2;" vertex="1" parent="sDgR5sVbnxLiPeDA74GP-48">
          <mxGeometry x="300.00142857142856" y="40.68000000000001" width="50" height="50" as="geometry" />
        </mxCell>
        <mxCell id="sDgR5sVbnxLiPeDA74GP-59" value="Tri des incidents" style="text;html=1;strokeColor=none;fillColor=none;align=center;verticalAlign=middle;whiteSpace=wrap;rounded=0;" vertex="1" parent="sDgR5sVbnxLiPeDA74GP-48">
          <mxGeometry x="120" y="-5" width="120" height="30" as="geometry" />
        </mxCell>
        <mxCell id="sDgR5sVbnxLiPeDA74GP-55" style="edgeStyle=orthogonalEdgeStyle;rounded=0;orthogonalLoop=1;jettySize=auto;html=1;exitX=1;exitY=0.5;exitDx=0;exitDy=0;exitPerimeter=0;entryX=0;entryY=0.5;entryDx=0;entryDy=0;entryPerimeter=0;" edge="1" parent="1" source="sDgR5sVbnxLiPeDA74GP-9" target="sDgR5sVbnxLiPeDA74GP-52">
          <mxGeometry relative="1" as="geometry" />
        </mxCell>
        <mxCell id="sDgR5sVbnxLiPeDA74GP-9" value="Interprétation du rapport d&#39;incident" style="points=[[0.25,0,0],[0.5,0,0],[0.75,0,0],[1,0.25,0],[1,0.5,0],[1,0.75,0],[0.75,1,0],[0.5,1,0],[0.25,1,0],[0,0.75,0],[0,0.5,0],[0,0.25,0]];shape=mxgraph.bpmn.task;whiteSpace=wrap;rectStyle=rounded;size=10;html=1;container=1;expand=0;collapsible=0;taskMarker=abstract;" vertex="1" parent="1">
          <mxGeometry x="-80" y="319.5" width="90" height="80" as="geometry" />
        </mxCell>
        <mxCell id="sDgR5sVbnxLiPeDA74GP-54" style="edgeStyle=orthogonalEdgeStyle;rounded=0;orthogonalLoop=1;jettySize=auto;html=1;exitX=1;exitY=0.5;exitDx=0;exitDy=0;exitPerimeter=0;entryX=0;entryY=0.5;entryDx=0;entryDy=0;entryPerimeter=0;" edge="1" parent="1" source="sDgR5sVbnxLiPeDA74GP-8" target="sDgR5sVbnxLiPeDA74GP-9">
          <mxGeometry relative="1" as="geometry" />
        </mxCell>
        <mxCell id="sDgR5sVbnxLiPeDA74GP-8" value="Réception du rapport d&#39;incident" style="points=[[0.25,0,0],[0.5,0,0],[0.75,0,0],[1,0.25,0],[1,0.5,0],[1,0.75,0],[0.75,1,0],[0.5,1,0],[0.25,1,0],[0,0.75,0],[0,0.5,0],[0,0.25,0]];shape=mxgraph.bpmn.task;whiteSpace=wrap;rectStyle=rounded;size=10;html=1;container=1;expand=0;collapsible=0;taskMarker=abstract;" vertex="1" parent="1">
          <mxGeometry x="-190" y="319.5" width="90" height="80" as="geometry" />
        </mxCell>
        <mxCell id="sDgR5sVbnxLiPeDA74GP-16" style="edgeStyle=orthogonalEdgeStyle;rounded=0;orthogonalLoop=1;jettySize=auto;html=1;exitX=1;exitY=0.5;exitDx=0;exitDy=0;exitPerimeter=0;entryX=0;entryY=0.5;entryDx=0;entryDy=0;entryPerimeter=0;" edge="1" parent="1" source="sDgR5sVbnxLiPeDA74GP-8" target="sDgR5sVbnxLiPeDA74GP-9">
          <mxGeometry relative="1" as="geometry" />
        </mxCell>
        <mxCell id="sDgR5sVbnxLiPeDA74GP-53" style="edgeStyle=orthogonalEdgeStyle;rounded=0;orthogonalLoop=1;jettySize=auto;html=1;exitX=1;exitY=0.5;exitDx=0;exitDy=0;exitPerimeter=0;entryX=0;entryY=0.5;entryDx=0;entryDy=0;entryPerimeter=0;" edge="1" parent="1" source="sDgR5sVbnxLiPeDA74GP-51" target="sDgR5sVbnxLiPeDA74GP-8">
          <mxGeometry relative="1" as="geometry" />
        </mxCell>
        <mxCell id="sDgR5sVbnxLiPeDA74GP-69" value="" style="points=[[0.145,0.145,0],[0.5,0,0],[0.855,0.145,0],[1,0.5,0],[0.855,0.855,0],[0.5,1,0],[0.145,0.855,0],[0,0.5,0]];shape=mxgraph.bpmn.event;html=1;verticalLabelPosition=bottom;labelBackgroundColor=#ffffff;verticalAlign=top;align=center;perimeter=ellipsePerimeter;outlineConnect=0;aspect=fixed;outline=end;symbol=terminate2;" vertex="1" parent="1">
          <mxGeometry x="500" y="334.5" width="50" height="50" as="geometry" />
        </mxCell>
      </root>
    </mxGraphModel>
  </diagram>
</mxfile>
